<svg  xmlns="http://www.w3.org/2000/svg">
    <symbol width="19" height="22" viewBox="0 0 19 22" fill="none" id="profile">
        <circle cx="4.66667" cy="4.66667" r="4.66667" transform="matrix(-1 0 0 1 13.7109 0.875)" stroke="currentColor" stroke-width="1.75"/>
        <path d="M0.875 17.1315C0.875 16.1277 1.506 15.2323 2.45127 14.8947C6.71305 13.3727 11.3703 13.3727 15.6321 14.8947C16.5773 15.2323 17.2083 16.1277 17.2083 17.1315V18.6662C17.2083 20.0516 15.9813 21.1157 14.6099 20.9198L13.4964 20.7607C10.5416 20.3386 7.54174 20.3386 4.58689 20.7607L3.47341 20.9198C2.10199 21.1157 0.875 20.0516 0.875 18.6662V17.1315Z" stroke="currentColor" stroke-width="1.75"/>
    </symbol>
    <symbol width="18" height="18" viewBox="0 0 18 18" fill="none" id="edite">
            <path d="M10.6381 2.41293L11.3796 1.67142C12.6081 0.442859 14.6 0.442859 15.8286 1.67142C17.0571 2.89999 17.0571 4.89188 15.8286 6.12044L15.0871 6.86195M10.6381 2.41293C10.6381 2.41293 10.7307 3.98862 12.1211 5.37894C13.5114 6.76926 15.0871 6.86195 15.0871 6.86195M10.6381 2.41293L3.82106 9.22992C3.35933 9.69165 3.12846 9.92251 2.92992 10.1771C2.69571 10.4773 2.49491 10.8022 2.33107 11.146C2.19219 11.4374 2.08894 11.7472 1.88245 12.3667L1.00745 14.9917M15.0871 6.86195L8.27008 13.6789C7.80835 14.1407 7.57749 14.3715 7.32293 14.5701C7.02265 14.8043 6.69775 15.0051 6.35398 15.1689C6.06256 15.3078 5.75282 15.4111 5.13334 15.6175L2.50834 16.4926M2.50834 16.4926L1.86667 16.7064C1.56182 16.8081 1.22573 16.7287 0.998505 16.5015C0.771284 16.2743 0.691942 15.9382 0.793559 15.6333L1.00745 14.9917M2.50834 16.4926L1.00745 14.9917" stroke="currentColor" stroke-width="1.5"/>
    </symbol>
    <symbol width="22" height="21" viewBox="0 0 22 21" fill="none" id="home">
            <path d="M14.9246 12.697C15.1057 12.3245 14.9505 11.8757 14.578 11.6946C14.2055 11.5135 13.7567 11.6687 13.5756 12.0412C13.5151 12.1655 13.2116 12.5763 12.6763 12.9591C12.1593 13.3287 11.4986 13.6191 10.7501 13.6191C9.17788 13.6191 8.33932 12.6707 7.87945 11.9612C7.65416 11.6136 7.18975 11.5145 6.84217 11.7398C6.49458 11.9651 6.39543 12.4295 6.62072 12.7771C7.19789 13.6675 8.43341 15.1191 10.7501 15.1191C11.894 15.1191 12.8537 14.6762 13.5487 14.1792C14.2255 13.6953 14.7258 13.1061 14.9246 12.697Z" fill="currentColor"/>
            <path fill-rule="evenodd" clip-rule="evenodd" d="M12.2569 0.44955L13.1316 1.02252L21.1588 6.24019C21.5061 6.46593 21.6047 6.93047 21.3789 7.27776C21.1532 7.62506 20.6886 7.7236 20.3413 7.49786L19.4626 6.92664C19.4874 7.11223 19.5001 7.30058 19.5001 7.49063V15.8692C19.5001 18.2164 17.5973 20.1192 15.2501 20.1192H6.25009C3.90288 20.1192 2.00009 18.2164 2.00009 15.8692V7.49063C2.00009 7.30058 2.01279 7.11223 2.03762 6.92664L1.15883 7.49786C0.811534 7.7236 0.346997 7.62506 0.121255 7.27776C-0.104486 6.93047 -0.00594819 6.46593 0.341347 6.24019L8.36851 1.02254L9.24329 0.44955C10.1584 -0.14985 11.3418 -0.14985 12.2569 0.44955ZM11.4313 1.70634L12.3119 2.27872L16.7569 5.19018C17.5327 5.69832 18.0001 6.56324 18.0001 7.49063V15.8692C18.0001 17.388 16.7689 18.6192 15.2501 18.6192H6.25009C4.7313 18.6192 3.50009 17.388 3.50009 15.8692V7.49063C3.50009 6.56324 3.96751 5.69832 4.74329 5.19018L9.18824 2.27874L10.0689 1.70634C10.4831 1.43708 11.0171 1.43708 11.4313 1.70634Z" fill="currentColor"/>
    </symbol>
    <symbol width="19" height="21" viewBox="0 0 19 21" fill="none" id="account">
        <path fill-rule="evenodd" clip-rule="evenodd" d="M7.78923 0C5.16588 0 3.03923 2.12665 3.03923 4.75C3.03923 7.37335 5.16588 9.5 7.78923 9.5C10.4126 9.5 12.5392 7.37335 12.5392 4.75C12.5392 2.12665 10.4126 0 7.78923 0ZM4.53923 4.75C4.53923 2.95507 5.99431 1.5 7.78923 1.5C9.58416 1.5 11.0392 2.95507 11.0392 4.75C11.0392 6.54493 9.58416 8 7.78923 8C5.99431 8 4.53923 6.54493 4.53923 4.75Z" fill="currentColor"/>
        <path d="M2.5676 13.6091C2.97188 12.9219 3.70961 12.5 4.50687 12.5H10.2912C10.7054 12.5 11.0412 12.1642 11.0412 11.75C11.0412 11.3358 10.7054 11 10.2912 11H4.50687C3.1781 11 1.94855 11.7032 1.27476 12.8484L0.612985 13.9733C0.0906677 14.861 -0.133386 15.8978 0.0805198 16.8298C0.303773 17.8025 0.995417 18.5951 2.12733 18.8875C3.99378 19.3697 6.47351 19.5618 8.81645 19.4828C9.23043 19.4688 9.55471 19.1219 9.54076 18.708C9.5268 18.294 9.17989 17.9697 8.76592 17.9836C6.51414 18.0596 4.18715 17.8704 2.50251 17.4352C1.92695 17.2865 1.64371 16.9352 1.54251 16.4943C1.43196 16.0126 1.53389 15.3661 1.90583 14.7339L2.5676 13.6091Z" fill="currentColor"/>
        <path fill-rule="evenodd" clip-rule="evenodd" d="M16.9179 18.068C17.3106 17.4752 17.5392 16.7643 17.5392 16C17.5392 13.9289 15.8603 12.25 13.7892 12.25C11.7182 12.25 10.0392 13.9289 10.0392 16C10.0392 18.0711 11.7182 19.75 13.7892 19.75C14.5535 19.75 15.2644 19.5213 15.8573 19.1287L16.7593 20.0307C17.0521 20.3236 17.527 20.3236 17.8199 20.0307C18.1128 19.7378 18.1128 19.2629 17.8199 18.97L16.9179 18.068ZM11.5392 16C11.5392 14.7574 12.5466 13.75 13.7892 13.75C15.0319 13.75 16.0392 14.7574 16.0392 16C16.0392 17.2426 15.0319 18.25 13.7892 18.25C12.5466 18.25 11.5392 17.2426 11.5392 16Z" fill="currentColor"/>
    </symbol>
    <symbol width="20" height="20" viewBox="0 0 20 20" fill="none" id="message">
            <path fill-rule="evenodd" clip-rule="evenodd" d="M9.99631 0C6.3161 0 3.24631 2.81847 3.24631 6.39153V7.44723C3.24631 8.47466 2.94219 9.4791 2.37227 10.334C2.36223 10.349 2.35273 10.3645 2.3438 10.3802L1.96516 11.0484C1.47504 11.9133 1.31535 12.9251 1.51104 13.8979C1.52568 13.9707 1.54944 14.0722 1.58761 14.1948C2.05095 15.6832 3.49726 16.4486 4.6862 16.8067C5.04153 16.9137 5.41876 17.0081 5.81275 17.0898L5.86402 17.1717C6.95839 18.9184 8.43099 19.95 10.0469 19.95C11.6628 19.95 13.1354 18.9184 14.2297 17.1717L14.2965 17.0652C14.6504 16.9888 14.9902 16.9021 15.312 16.805C16.5165 16.4416 17.9056 15.6622 18.3884 14.2056C18.4065 14.1508 18.4216 14.1022 18.4331 14.065C18.4461 14.0231 18.4517 14.0051 18.4556 13.9936C18.4663 13.9626 18.4749 13.9309 18.4814 13.8988C18.6785 12.925 18.5173 11.9128 18.0275 11.0484L17.6488 10.3802C17.6399 10.3645 17.6304 10.349 17.6203 10.334C17.0504 9.4791 16.7463 8.47466 16.7463 7.44723V6.39153C16.7463 2.81847 13.6765 0 9.99631 0ZM12.1849 17.3852C10.7934 17.5181 9.31472 17.5215 7.91872 17.3955C8.63412 18.1392 9.37848 18.45 10.0469 18.45C10.7184 18.45 11.4665 18.1363 12.1849 17.3852ZM4.74631 6.39153C4.74631 3.73312 7.05559 1.5 9.99631 1.5C12.937 1.5 15.2463 3.73312 15.2463 6.39153V7.44723C15.2463 8.76147 15.6326 10.0465 16.3568 11.1427L16.7224 11.7879C17.0273 12.326 17.1321 12.954 17.019 13.5611L17.0028 13.613L17.0002 13.6214C16.9889 13.6579 16.9776 13.6942 16.9645 13.7336C16.712 14.4955 15.9118 15.0573 14.8787 15.3689C12.1467 16.1932 7.85285 16.1937 5.11871 15.3704C4.06292 15.0524 3.2533 14.499 3.01981 13.7489C2.99901 13.6821 2.98746 13.6313 2.98158 13.6021C2.8567 12.9813 2.95889 12.3373 3.27019 11.7879L3.63583 11.1427C4.36004 10.0465 4.74631 8.76146 4.74631 7.44723V6.39153Z" fill="currentColor"/>
            <path d="M18.3837 6.0012C18.7973 6.02461 19.1135 6.37884 19.0901 6.79239C19.0561 7.39315 19.0742 7.80993 19.1704 8.16793C19.2622 8.50966 19.4385 8.84563 19.8003 9.24991C20.0765 9.5586 20.0501 10.0327 19.7414 10.3089C19.4327 10.5851 18.9586 10.5588 18.6824 10.2501C18.1941 9.70437 17.8851 9.16535 17.7217 8.55707C17.5627 7.96508 17.5558 7.35685 17.5925 6.70761C17.6159 6.29406 17.9702 5.97779 18.3837 6.0012Z" fill="currentColor"/>
            <path d="M2.39881 6.70761C2.3754 6.29406 2.02117 5.97779 1.60762 6.0012C1.19407 6.02461 0.877799 6.37884 0.901209 6.79239C0.935217 7.39315 0.91714 7.80993 0.820971 8.16793C0.729177 8.50966 0.552794 8.84563 0.191076 9.24991C-0.0851193 9.5586 -0.058778 10.0327 0.249911 10.3089C0.5586 10.5851 1.03274 10.5588 1.30894 10.2501C1.79722 9.70437 2.10622 9.16535 2.26962 8.55707C2.42864 7.96508 2.43556 7.35685 2.39881 6.70761Z" fill="currentColor"/>
    </symbol>
    <symbol width="22" height="20" viewBox="0 0 22 20" fill="none" id="comments">
            <path d="M5 10C5 9.58579 5.33579 9.25 5.75 9.25H11.75C12.1642 9.25 12.5 9.58579 12.5 10C12.5 10.4142 12.1642 10.75 11.75 10.75H5.75C5.33579 10.75 5 10.4142 5 10Z" fill="currentColor"/>
            <path d="M5.75 5.25C5.33579 5.25 5 5.58579 5 6C5 6.41421 5.33579 6.75 5.75 6.75H8.25C8.66421 6.75 9 6.41421 9 6C9 5.58579 8.66421 5.25 8.25 5.25H5.75Z" fill="currentColor"/>
            <path fill-rule="evenodd" clip-rule="evenodd" d="M0 4.25C0 1.90279 1.90279 0 4.25 0H17.25C19.5972 0 21.5 1.90279 21.5 4.25V12.25C21.5 14.5972 19.5972 16.5 17.25 16.5H11.4749C11.2097 16.5 10.9553 16.6054 10.7678 16.7929L8.26219 19.2985C6.99147 20.5692 4.81733 19.9109 4.4649 18.1487L4.24263 17.0374C4.18013 16.7249 3.90576 16.5 3.58708 16.5C1.60599 16.5 0 14.894 0 12.9129V4.25ZM4.25 1.5C2.73122 1.5 1.5 2.73122 1.5 4.25V12.9129C1.5 14.0656 2.43442 15 3.58708 15C4.62078 15 5.51078 15.7296 5.7135 16.7433L5.93577 17.8546C6.05324 18.442 6.77796 18.6614 7.20153 18.2378L9.70711 15.7322C10.1759 15.2634 10.8118 15 11.4749 15H17.25C18.7688 15 20 13.7688 20 12.25V4.25C20 2.73122 18.7688 1.5 17.25 1.5H4.25Z" fill="currentColor"/>
    </symbol>
    <symbol width="19" height="20" viewBox="0 0 19 20" fill="none" id="exit">
            <path d="M1.5 4.25073C1.5 2.58427 2.97038 1.30079 4.62156 1.52595L8.62156 2.07141C9.98415 2.25721 11 3.42099 11 4.79619V6.35011C11 6.76432 11.3358 7.10011 11.75 7.10011C12.1642 7.10011 12.5 6.76432 12.5 6.35011V4.79619C12.5 2.67089 10.93 0.872317 8.82423 0.58516L4.82423 0.0397057C2.27241 -0.30827 0 1.67529 0 4.25073V15.4545C0 18.331 2.7976 20.3766 5.53862 19.5045L9.53862 18.2317C11.3023 17.6706 12.5 16.0326 12.5 14.1818V13.3501C12.5 12.9359 12.1642 12.6001 11.75 12.6001C11.3358 12.6001 11 12.9359 11 13.3501V14.1818C11 15.3794 10.225 16.4392 9.08381 16.8024L5.08381 18.0751C3.31021 18.6394 1.5 17.3157 1.5 15.4545V4.25073Z" fill="currentColor"/>
            <path d="M14.1752 6.36835C14.4413 6.05089 14.9143 6.00924 15.2318 6.27531L17.8678 8.48465C18.7108 9.19113 18.7108 10.5084 17.8678 11.2149L15.2319 13.4249C14.9144 13.691 14.4414 13.6494 14.1753 13.332C13.9092 13.0145 13.9508 12.5415 14.2682 12.2754L16.2664 10.6001H6.25C5.83579 10.6001 5.5 10.2643 5.5 9.8501C5.5 9.43588 5.83579 9.1001 6.25 9.1001H16.267L14.2683 7.42492C13.9508 7.15885 13.9091 6.68581 14.1752 6.36835Z" fill="currentColor"/>
    </symbol>
    <symbol width="17" height="10" viewBox="0 0 17 10" fill="none"  id="chevron">
            <path d="M11.75 8.75L15.0429 5.45711C15.4334 5.06658 15.4334 4.43342 15.0429 4.04289L11.75 0.75M14.75 4.75L0.75 4.75" stroke="#171717" stroke-width="1.5" stroke-linecap="round"/>
    </symbol>
    <symbol width="28" height="28" viewBox="0 0 28 28" fill="none" id="clock">
            <circle cx="14" cy="14" r="11.6667" stroke="#2E7AF1" stroke-width="1.75"/>
            <path d="M14 9.33334V13.6878C14 13.8829 14.0975 14.065 14.2598 14.1732L17.5 16.3333" stroke="#2E7AF1" stroke-width="1.75" stroke-linecap="round"/>

    </symbol>
    <symbol width="15" height="12" viewBox="0 0 15 12" fill="none" id="chevron-revers">
            <path fill-rule="evenodd" clip-rule="evenodd" d="M6.06694 0.183058C6.31102 0.427136 6.31102 0.822864 6.06694 1.06694L2.13388 5H13.9583C14.3035 5 14.5833 5.27982 14.5833 5.625C14.5833 5.97018 14.3035 6.25 13.9583 6.25H2.13388L6.06694 10.1831C6.31102 10.4271 6.31102 10.8229 6.06694 11.0669C5.82286 11.311 5.42714 11.311 5.18306 11.0669L0.183058 6.06694C-0.0610194 5.82286 -0.0610194 5.42714 0.183058 5.18306L5.18306 0.183058C5.42714 -0.0610194 5.82286 -0.0610194 6.06694 0.183058Z" fill="#CC312D"/>
    </symbol>
    <symbol width="28" height="28" viewBox="0 0 28 28" fill="none" id="check">
            <circle cx="13.9999" cy="14" r="11.6667" stroke="#0CAF3A" stroke-width="2.1"/>
            <path d="M9.91675 14.5833L12.2501 16.9166L18.0834 11.0833" stroke="#0CAF3A" stroke-width="2.1" stroke-linecap="round" stroke-linejoin="round"/>
    </symbol>
    <symbol width="26" height="26" viewBox="0 0 26 26" fill="none" id="return">
            <path fill-rule="evenodd" clip-rule="evenodd" d="M0 12.5417C0 5.6151 5.6151 0 12.5417 0C19.4682 0 25.0833 5.6151 25.0833 12.5417C25.0833 19.4682 19.4682 25.0833 12.5417 25.0833C5.6151 25.0833 0 19.4682 0 12.5417ZM12.5417 1.75C6.58159 1.75 1.75 6.58159 1.75 12.5417C1.75 18.5017 6.58159 23.3333 12.5417 23.3333C18.5017 23.3333 23.3333 18.5017 23.3333 12.5417C23.3333 6.58159 18.5017 1.75 12.5417 1.75ZM9.2475 9.91667L10.1872 9.12888C10.5575 8.81841 10.606 8.26652 10.2955 7.89619C9.98506 7.52587 9.43317 7.47735 9.06285 7.78782L7.01269 9.50663C6.61936 9.83634 6.42071 10.3063 6.41678 10.7777C6.4167 10.7823 6.41667 10.787 6.41667 10.7917C6.41667 10.7961 6.4167 10.8005 6.41677 10.805C6.42034 11.2768 6.61897 11.7473 7.01269 12.0772L9.06294 13.7956C9.43331 14.106 9.9852 14.0574 10.2956 13.6871C10.606 13.3167 10.5574 12.7648 10.1871 12.4544L9.24718 11.6667H14.5833C15.7109 11.6667 16.625 12.5808 16.625 13.7083C16.625 14.8359 15.7109 15.75 14.5833 15.75H12.25C11.7668 15.75 11.375 16.1418 11.375 16.625C11.375 17.1082 11.7668 17.5 12.25 17.5H14.5833C16.6774 17.5 18.375 15.8024 18.375 13.7083C18.375 11.6143 16.6774 9.91667 14.5833 9.91667H9.2475Z" fill="#14151B"/>
    </symbol>
    <symbol  width="28" height="28" viewBox="0 0 28 28" fill="none" id="cancel">
            <circle cx="13.9999" cy="14" r="11.6667" stroke="#ED4545" stroke-width="1.75"/>
            <path d="M16.9166 11.0833L11.0833 16.9166M11.0832 11.0833L16.9165 16.9166" stroke="#ED4545" stroke-width="1.75" stroke-linecap="round"/>
    </symbol>



</svg>
